<?xml version="1.0" standalone="no"?>
<!DOCTYPE svg PUBLIC "-//W3C//DTD SVG 20010904//EN"
 "http://www.w3.org/TR/2001/REC-SVG-20010904/DTD/svg10.dtd">
<svg version="1.0" xmlns="http://www.w3.org/2000/svg"
 width="483.000000pt" height="295.000000pt" viewBox="0 0 483.000000 295.000000"
 preserveAspectRatio="xMidYMid meet">
<metadata>
Created by potrace 1.16, written by Peter Selinger 2001-2019
</metadata>
<g transform="translate(0.000000,295.000000) scale(0.100000,-0.100000)"
fill="#000000" stroke="none">
<path d="M2480 2513 c-1 -32 -1 -223 0 -425 l0 -368 -80 0 -80 0 0 325 0 325
-160 0 -160 0 0 -325 0 -325 -47 0 -46 0 6 188 7 187 -51 65 c-28 36 -56 65
-62 65 -6 0 -35 -28 -64 -63 l-53 -62 0 -190 0 -190 -95 0 -95 0 0 -95 0 -94
48 14 c102 32 346 75 512 91 133 12 234 15 420 11 301 -7 498 -32 753 -96 l67
-17 0 93 0 93 -85 0 -85 0 0 85 0 85 -80 0 -80 0 0 90 0 90 -100 0 -100 0 0
250 0 250 -145 0 -145 0 0 -57z"/>
<path d="M2195 1589 c-313 -22 -600 -85 -812 -178 -82 -36 -183 -92 -138 -76
467 162 973 224 1499 184 240 -18 546 -72 726 -128 35 -11 66 -19 67 -17 7 7
-156 75 -237 100 -345 104 -714 143 -1105 115z"/>
<path d="M1142 1148 c-30 -30 1 -94 33 -68 25 20 13 80 -15 80 -3 0 -11 -5
-18 -12z"/>
<path d="M387 1143 c-2 -5 -2 -88 1 -185 l4 -178 83 0 c79 0 83 1 89 24 3 13
9 31 12 40 6 14 2 14 -36 1 -23 -8 -55 -15 -71 -15 l-29 0 0 160 0 160 -24 0
c-14 0 -27 -3 -29 -7z"/>
<path d="M2108 1142 c-16 -3 -18 -20 -18 -183 0 -172 1 -179 20 -179 18 0 20
7 20 65 0 36 4 65 8 65 4 0 25 -29 46 -65 32 -56 42 -65 66 -65 l28 0 -44 66
c-24 36 -44 70 -44 76 0 14 68 105 83 111 7 3 -5 6 -26 6 -27 1 -39 -4 -44
-16 -4 -10 -20 -38 -37 -63 l-31 -45 -5 115 c-4 103 -7 115 -22 112z"/>
<path d="M2466 1142 c-3 -5 3 -36 13 -68 11 -33 31 -104 46 -159 14 -55 29
-108 31 -117 3 -10 14 -18 24 -18 14 0 25 21 50 98 18 53 36 101 40 106 5 4
22 -34 38 -85 27 -84 33 -94 56 -97 23 -3 27 2 40 50 47 169 75 265 81 281 6
14 1 17 -33 17 -35 0 -39 -2 -35 -20 7 -25 -47 -244 -57 -233 -4 4 -24 62 -44
127 -20 66 -38 121 -39 123 -2 1 -22 -56 -46 -128 -24 -72 -47 -127 -51 -122
-9 9 -48 175 -52 218 -2 24 -8 31 -30 33 -14 2 -29 -1 -32 -6z"/>
<path d="M3683 1143 c-20 -4 -23 -11 -23 -47 0 -43 0 -43 -41 -49 -78 -10
-126 -84 -117 -178 6 -58 28 -86 75 -95 27 -5 39 -2 59 17 20 19 24 20 24 6 0
-11 8 -17 25 -17 l25 0 0 185 c0 102 -1 184 -2 184 -2 -1 -13 -4 -25 -6z m-25
-230 l3 -93 -41 0 c-35 0 -43 5 -61 33 -15 23 -19 43 -16 75 6 58 31 84 76 80
l36 -3 3 -92z"/>
<path d="M3390 960 l0 -180 25 0 25 0 0 180 0 180 -25 0 -25 0 0 -180z"/>
<path d="M1437 1050 c-35 -41 -37 -45 -18 -48 20 -3 21 -10 21 -102 0 -76 4
-102 16 -114 18 -18 47 -20 75 -6 27 15 24 40 -4 40 -38 0 -47 19 -47 102 l0
78 30 0 c23 0 30 4 30 20 0 15 -7 20 -29 20 -25 0 -30 5 -33 27 l-3 27 -38
-44z"/>
<path d="M683 1030 c-57 -34 -82 -101 -63 -170 15 -54 52 -85 105 -85 132 0
172 219 48 266 -36 13 -54 11 -90 -11z m88 -49 c23 -23 29 -38 29 -71 0 -56
-24 -100 -54 -100 -57 0 -97 69 -81 139 14 66 59 79 106 32z"/>
<path d="M945 1039 c-33 -19 -45 -41 -45 -83 0 -26 7 -47 20 -61 l21 -22 -26
-17 c-53 -35 -20 -61 73 -57 39 2 54 -2 58 -14 11 -27 -16 -46 -60 -43 -33 2
-41 7 -46 26 l-5 24 -24 -26 c-24 -25 -24 -27 -8 -44 26 -26 117 -23 154 4 30
23 43 78 23 98 -6 6 -39 13 -73 16 -60 5 -81 22 -35 28 67 9 105 47 96 96 -4
22 -2 26 18 26 17 0 24 6 24 19 0 15 -9 20 -47 24 -27 3 -59 8 -73 11 -14 3
-34 1 -45 -5z m69 -45 c32 -31 14 -84 -29 -84 -30 0 -45 19 -45 56 0 44 43 60
74 28z"/>
<path d="M1285 1038 c-59 -32 -59 -74 1 -138 57 -61 56 -85 -4 -84 -33 1 -42
-3 -42 -17 0 -36 67 -39 106 -6 42 37 37 78 -15 131 -53 54 -53 81 2 81 28 0
37 4 37 16 0 28 -48 38 -85 17z"/>
<path d="M1643 1030 c-57 -34 -82 -103 -63 -169 31 -109 160 -120 210 -17 24
51 25 83 4 135 -10 27 -26 45 -49 55 -43 21 -63 20 -102 -4z m88 -49 c24 -24
29 -38 29 -76 0 -77 -38 -113 -91 -85 -49 27 -63 127 -23 171 24 27 51 24 85
-10z"/>
<path d="M1923 1035 c-68 -29 -96 -141 -54 -211 33 -54 126 -70 150 -25 10 17
7 18 -33 14 -36 -4 -47 -1 -64 18 -30 31 -38 82 -20 127 17 45 54 62 98 45 28
-10 30 -10 30 12 0 35 -50 45 -107 20z"/>
<path d="M3013 1040 c-42 -10 -57 -23 -77 -64 -38 -81 -7 -176 65 -197 79 -24
149 40 149 134 0 59 -21 102 -60 122 -32 16 -31 16 -77 5z m54 -45 c63 -44 47
-186 -21 -185 -45 1 -76 46 -76 112 0 76 45 110 97 73z"/>
<path d="M3291 1024 c-30 -25 -31 -25 -31 -5 0 16 -6 21 -25 21 l-25 0 0 -130
0 -130 25 0 25 0 0 105 c0 103 0 105 25 111 14 3 34 4 45 1 17 -4 20 0 20 24
0 37 -18 37 -59 3z"/>
<path d="M3970 1043 c-32 -12 -50 -37 -50 -68 0 -24 11 -43 45 -78 25 -26 45
-51 45 -56 0 -20 -31 -33 -65 -27 -30 6 -35 4 -35 -12 0 -39 98 -38 125 2 28
38 19 75 -30 123 -25 24 -45 48 -45 52 0 17 31 33 55 28 22 -4 26 -1 23 17 -3
22 -37 31 -68 19z"/>
<path d="M4139 1043 c-10 -2 -19 -12 -22 -23 -4 -16 0 -18 29 -13 42 7 64 -10
64 -47 0 -25 -7 -32 -55 -54 -79 -36 -93 -91 -32 -126 24 -13 29 -13 57 3 16
10 30 13 30 8 0 -6 12 -11 26 -11 l26 0 -4 116 c-3 108 -5 117 -27 135 -22 18
-55 22 -92 12z m71 -188 c0 -30 -3 -35 -24 -35 -39 0 -56 11 -56 34 0 30 7 36
47 36 31 0 33 -2 33 -35z"/>
<path d="M4363 1040 c-33 -13 -55 -53 -47 -84 3 -15 24 -41 45 -60 61 -52 46
-104 -22 -79 -27 10 -29 9 -29 -13 0 -48 101 -42 129 7 20 36 8 71 -40 119
-50 50 -49 75 4 75 28 0 37 4 37 16 0 27 -36 36 -77 19z"/>
<path d="M1140 910 l0 -130 25 0 25 0 0 130 0 130 -25 0 -25 0 0 -130z"/>
<path d="M915 651 c-80 -33 -84 -158 -5 -191 40 -16 93 -3 98 25 3 16 1 18 -9
8 -20 -20 -76 -16 -99 7 -27 27 -27 83 1 111 16 16 30 20 65 17 29 -2 44 1 44
8 0 23 -55 31 -95 15z"/>
<path d="M1362 648 c-7 -7 -12 -20 -12 -29 0 -10 -5 -21 -10 -24 -6 -4 -7 -12
-3 -18 8 -13 10 -25 12 -87 2 -67 21 -45 21 25 0 51 3 65 15 65 8 0 15 5 15
10 0 6 -7 10 -15 10 -8 0 -15 9 -15 20 0 13 7 20 20 20 11 0 20 5 20 10 0 14
-33 13 -48 -2z"/>
<path d="M1422 646 c1 -10 8 -17 13 -17 15 1 12 24 -3 29 -9 3 -13 -2 -10 -12z"/>
<path d="M2183 645 c-40 -28 -26 -76 28 -106 13 -6 19 -18 17 -32 -2 -17 -11
-23 -36 -25 -39 -4 -38 -25 1 -30 30 -4 67 28 67 58 0 19 -18 40 -64 73 -30
22 -14 50 25 45 23 -4 29 -1 27 11 -4 22 -38 25 -65 6z"/>
<path d="M2655 650 c-7 -12 2 -30 16 -30 5 0 9 9 9 20 0 21 -15 27 -25 10z"/>
<path d="M2842 646 c1 -10 8 -17 13 -17 15 1 12 24 -3 29 -9 3 -13 -2 -10 -12z"/>
<path d="M3380 640 c-29 -29 -25 -48 21 -90 50 -46 48 -70 -6 -70 -40 0 -47
-17 -10 -26 37 -9 75 19 75 55 0 21 -10 37 -37 58 -45 37 -41 68 7 61 32 -5
43 15 14 26 -27 10 -43 7 -64 -14z"/>
<path d="M3663 653 c-19 -7 -18 -203 0 -203 10 0 13 25 12 105 0 58 0 105 0
104 0 0 -6 -3 -12 -6z"/>
<path d="M3715 650 c-7 -12 2 -30 16 -30 5 0 9 9 9 20 0 21 -15 27 -25 10z"/>
<path d="M3870 625 c0 -19 -5 -25 -20 -25 -62 0 -99 -117 -45 -142 19 -8 28
-8 41 3 13 11 18 11 21 2 3 -7 9 -13 14 -13 5 0 9 45 9 100 0 60 -4 100 -10
100 -5 0 -10 -11 -10 -25z m-2 -97 c3 -45 1 -48 -20 -48 -30 0 -48 17 -48 46
0 41 11 55 39 52 23 -3 26 -8 29 -50z"/>
<path d="M1063 585 c-12 -9 -25 -31 -29 -51 -5 -28 -2 -40 17 -60 29 -31 53
-31 84 1 30 30 32 64 4 99 -23 30 -45 33 -76 11z m56 -19 c15 -18 17 -74 4
-87 -17 -17 -47 -6 -61 23 -24 52 23 105 57 64z"/>
<path d="M1190 525 c0 -76 18 -108 22 -37 1 20 2 46 2 57 1 14 9 21 29 23 27
3 27 3 27 -57 0 -62 19 -88 21 -28 2 51 2 71 1 89 -3 23 -39 33 -59 16 -13
-10 -17 -10 -20 0 -12 34 -23 4 -23 -63z"/>
<path d="M1420 525 c0 -43 4 -75 10 -75 6 0 10 24 10 53 0 28 3 62 6 75 5 16
2 22 -10 22 -13 0 -16 -13 -16 -75z"/>
<path d="M1505 591 c-3 -5 5 -11 17 -13 32 -4 36 -41 6 -56 l-23 -11 23 0 c31
-1 29 -31 -3 -31 -16 0 -25 6 -25 16 0 8 -4 12 -10 9 -18 -11 -11 -43 10 -50
12 -4 27 -1 35 5 11 9 15 9 15 1 0 -6 5 -11 10 -11 14 0 13 123 -2 138 -14 14
-44 16 -53 3z"/>
<path d="M1610 525 c0 -88 18 -102 22 -17 3 54 4 57 31 60 27 3 27 3 27 -58 0
-40 4 -60 11 -58 6 2 10 7 10 11 -1 4 -1 34 -1 66 0 52 -3 61 -21 66 -12 4
-26 2 -32 -4 -14 -14 -30 -14 -22 -1 3 6 -1 10 -9 10 -13 0 -16 -14 -16 -75z"/>
<path d="M1750 590 c0 -5 11 -10 25 -10 14 0 25 -2 25 -5 0 -3 -14 -32 -30
-65 l-30 -60 39 0 c22 0 43 5 46 10 4 6 -7 10 -25 10 l-30 0 30 60 c16 33 30
62 30 65 0 3 -18 5 -40 5 -22 0 -40 -4 -40 -10z"/>
<path d="M1881 591 c-11 -7 -9 -10 10 -13 40 -5 37 -41 -6 -61 -55 -26 -42
-65 22 -64 39 0 46 15 37 76 -9 66 -28 84 -63 62z m39 -96 c0 -16 -35 -21 -44
-6 -8 12 4 21 26 21 10 0 18 -7 18 -15z"/>
<path d="M2312 584 c-29 -20 -31 -85 -2 -114 21 -21 70 -28 70 -10 0 6 -11 10
-25 10 -21 0 -45 24 -45 44 0 3 18 6 40 6 35 0 40 3 40 23 0 23 -27 57 -46 57
-5 0 -20 -7 -32 -16z m56 -26 c3 -14 -3 -18 -27 -18 -34 0 -34 0 -25 25 8 21
48 16 52 -7z"/>
<path d="M2430 525 c0 -43 4 -75 10 -75 6 0 10 27 10 60 0 57 1 60 25 60 16 0
25 6 25 15 0 18 -11 19 -29 3 -11 -10 -14 -10 -18 0 -12 33 -23 4 -23 -63z"/>
<path d="M2537 524 c14 -41 29 -74 35 -72 12 4 59 148 48 148 -4 0 -13 -21
-19 -48 -20 -80 -28 -83 -47 -14 -10 34 -23 62 -29 62 -8 0 -4 -24 12 -76z"/>
<path d="M2660 525 c0 -43 4 -75 10 -75 6 0 10 32 10 75 0 43 -4 75 -10 75 -6
0 -10 -32 -10 -75z"/>
<path d="M2735 575 c-28 -27 -31 -51 -13 -90 13 -28 48 -42 75 -29 15 6 13 8
-10 12 -35 4 -61 43 -51 74 8 28 22 38 52 38 12 0 22 5 22 10 0 20 -51 10 -75
-15z"/>
<path d="M2840 525 c0 -43 4 -75 10 -75 11 0 12 5 12 45 0 78 -3 105 -12 105
-6 0 -10 -32 -10 -75z"/>
<path d="M2926 579 c-23 -18 -27 -28 -24 -62 2 -33 9 -44 30 -56 25 -14 29
-14 55 5 39 29 45 95 11 118 -30 21 -40 20 -72 -5z m59 -15 c20 -21 16 -73 -7
-88 -37 -23 -79 59 -46 92 16 16 34 15 53 -4z"/>
<path d="M3152 539 c29 -60 29 -64 14 -96 -9 -18 -11 -33 -6 -33 14 0 37 39
59 101 10 29 22 62 26 72 5 11 3 17 -7 17 -8 0 -19 -19 -26 -45 -7 -25 -16
-45 -20 -45 -4 0 -15 19 -23 43 -9 23 -23 43 -31 45 -12 2 -9 -12 14 -59z"/>
<path d="M3515 575 c-27 -26 -31 -54 -14 -88 24 -44 58 -49 94 -12 30 30 32
64 4 99 -26 33 -53 33 -84 1z m73 -27 c17 -37 0 -81 -30 -76 -31 4 -51 48 -38
83 13 34 50 31 68 -7z"/>
<path d="M3720 525 c0 -43 4 -75 10 -75 6 0 10 32 10 75 0 43 -4 75 -10 75 -6
0 -10 -32 -10 -75z"/>
<path d="M3941 574 c-12 -15 -21 -38 -21 -51 0 -45 75 -95 95 -63 3 6 -4 10
-17 10 -26 0 -48 17 -48 37 0 9 14 13 40 13 39 0 40 1 34 28 -7 28 -29 52 -50
52 -7 0 -22 -12 -33 -26z m59 2 c0 -2 3 -11 6 -20 5 -13 -1 -16 -25 -16 -29 0
-41 16 -24 33 7 8 43 10 43 3z"/>
<path d="M4060 590 c0 -5 11 -10 25 -10 l25 0 -30 -60 c-16 -33 -30 -62 -30
-65 0 -3 18 -5 40 -5 22 0 40 5 40 10 0 6 -11 10 -25 10 -14 0 -25 2 -25 5 0
3 14 32 30 65 l30 60 -40 0 c-22 0 -40 -4 -40 -10z"/>
<path d="M1990 464 c0 -14 -5 -34 -10 -45 -6 -10 -7 -19 -3 -19 10 0 30 31 43
66 8 20 7 24 -10 24 -15 0 -20 -7 -20 -26z"/>
</g>
</svg>
